HIERARCHY
ROOT Hips
{
	OFFSET 0.000000 0.000000 0.000000
	CHANNELS 6 Xposition Yposition Zposition Zrotation Yrotation Xrotation 
	JOINT LHipJoint
	{
		OFFSET 0.000000 0.000000 0.000000
		CHANNELS 3 Zrotation Yrotation Xrotation
		JOINT LeftUpLeg
		{
			OFFSET 1.363060 -1.794630 0.839290
			CHANNELS 3 Zrotation Yrotation Xrotation
			JOINT LeftLeg
			{
				OFFSET 2.448110 -6.726130 0.000000
				CHANNELS 3 Zrotation Yrotation Xrotation
				JOINT LeftFoot
				{
					OFFSET 2.562200 -7.039590 0.000000
					CHANNELS 3 Zrotation Yrotation Xrotation
					JOINT LeftToeBase
					{
						OFFSET 0.157640 -0.433110 2.322550
						CHANNELS 3 Zrotation Yrotation Xrotation
						End Site
						{
							OFFSET 0.000000 0.000000 0.000000
						}
					}
				}
			}
		}
	}
	JOINT RHipJoint
	{
		OFFSET 0.000000 0.000000 0.000000
		CHANNELS 3 Zrotation Yrotation Xrotation
		JOINT RightUpLeg
		{
			OFFSET -1.305520 -1.794630 0.839290
			CHANNELS 3 Zrotation Yrotation Xrotation
			JOINT RightLeg
			{
				OFFSET -2.542530 -6.985550 0.000000
				CHANNELS 3 Zrotation Yrotation Xrotation
				JOINT RightFoot
				{
					OFFSET -2.568260 -7.056230 0.000000
					CHANNELS 3 Zrotation Yrotation Xrotation
					JOINT RightToeBase
					{
						OFFSET -0.164730 -0.452590 2.363150
						CHANNELS 3 Zrotation Yrotation Xrotation
						End Site
						{
							OFFSET 0.000000 0.000000 0.000000
						}
					}
				}
			}
		}
	}
}
MOTION
Frames: 28
Frame Time: 0.008333
24.387050 16.204189 4.614802 -128.280905 -86.087919 150.183121 -12.255995 4.333883 0.017018 -1.430727 7.527290 4.802694 -0.306448 0.793470 15.644953 0.944573 6.020065 12.608985 1.804800 -0.000000 -86.278500 6.778956 -1.488231 6.715705 9.727689 14.581436 -56.778974 2.541820 -1.241524 22.480285 -0.924053 -4.722221 3.929453 -2.143800 0.000000 -30.972800
24.182519 16.232863 4.587599 -125.952443 -85.909378 147.901943 -12.442611 4.299502 0.061446 -0.934608 7.596095 3.876827 -0.074181 0.907198 17.720530 1.067142 6.230273 14.892808 2.004200 0.000000 -84.811300 6.639603 -1.633032 6.673614 10.293796 14.803173 -56.484709 2.537096 -1.368506 23.616647 -0.930486 -4.592828 3.275984 -2.028900 -0.000000 -29.931200
23.980729 16.263290 4.558394 -124.149386 -85.724117 146.123563 -12.613297 4.246083 0.088853 -0.476511 7.759731 2.831195 0.138494 1.001110 19.963402 1.207943 6.460344 17.039043 2.200300 0.000000 -82.365999 6.524183 -1.756422 6.621683 10.866442 14.965540 -56.058810 2.555441 -1.471145 24.591675 -0.917311 -4.349773 2.486973 -1.873200 -0.000000 -28.779200
23.782213 16.295395 4.527130 -122.801404 -85.536440 144.781910 -12.761830 4.170859 0.098647 -0.067565 8.006709 1.672540 0.323580 1.075008 22.351788 1.362921 6.767221 18.943485 2.415000 -0.000000 -79.006600 6.433165 -1.860296 6.566134 11.433281 15.077377 -55.512671 2.592303 -1.548537 25.393142 -0.893283 -4.038854 1.604676 -1.697500 -0.000001 -27.534700
23.587466 16.329202 4.493041 -122.092186 -85.357284 144.065342 -12.870924 4.079926 0.092264 0.243623 8.302484 0.418156 0.473036 1.133856 24.850044 1.528297 7.237779 20.519885 2.690499 -0.000000 -74.981001 6.380559 -1.936424 6.506358 11.960857 15.126159 -54.874066 2.638637 -1.603377 26.040042 -0.862661 -3.683404 0.669763 -1.514100 -0.000000 -26.300600
23.396087 16.364752 4.458334 -121.404119 -85.168186 143.362551 -12.970135 3.961300 0.062991 0.543886 8.686340 -0.953296 0.590317 1.182558 27.470607 1.691916 7.840505 21.660329 3.011300 -0.000000 -70.214200 6.328531 -2.012074 6.460848 12.494664 15.173336 -54.127113 2.700154 -1.628899 26.468608 -0.841172 -3.370233 -0.264169 -1.351000 -0.000000 -24.987400
23.208617 16.402165 4.421752 -121.154321 -84.983213 143.090792 -13.034488 3.829411 0.016354 0.753411 9.091514 -2.403097 0.674744 1.230555 30.145326 1.856284 8.682127 22.364498 3.430000 -0.000000 -65.483000 6.302301 -2.069528 6.419379 12.986900 15.185857 -53.306493 2.764826 -1.631752 26.728226 -0.825902 -3.089060 -1.164353 -1.205400 -0.000000 -23.789700
23.024856 16.441457 4.384019 -121.205073 -84.798568 143.116162 -13.070951 3.685943 -0.048011 0.887410 9.510019 -3.929497 0.731319 1.285412 32.861562 2.016348 9.739784 22.594122 3.926300 -0.000000 -60.821900 6.293089 -2.114765 6.384892 13.442642 15.178471 -52.420414 2.831296 -1.612411 26.816043 -0.820216 -2.863767 -1.999856 -1.082800 0.000000 -22.741000
22.845116 16.482667 4.345660 -121.473477 -84.612237 143.355864 -13.084528 3.532590 -0.126522 0.951974 9.916105 -5.517911 0.768309 1.351615 35.581908 2.173622 11.001574 22.381114 4.482800 0.000000 -56.709601 6.294872 -2.151018 6.356859 13.864435 15.159860 -51.474645 2.898316 -1.572227 26.735986 -0.824580 -2.703116 -2.749424 -0.983800 -0.000000 -21.858200
22.669160 16.525762 4.306936 -121.946797 -84.425552 143.798198 -13.076949 3.374005 -0.215938 0.945499 10.288552 -7.154467 0.791074 1.433024 38.281329 2.326573 12.411328 21.731598 5.050100 -0.000001 -53.017200 6.307201 -2.178209 6.331690 14.249197 15.127534 -50.476203 2.964328 -1.513857 26.504383 -0.835897 -2.596969 -3.402719 -0.904500 -0.000001 -21.172901
22.497052 16.570611 4.268005 -122.597792 -84.240651 144.412789 -13.050876 3.212892 -0.311635 0.870056 10.604799 -8.822896 0.805822 1.530017 40.924165 2.477073 13.915296 20.707306 5.584000 0.000000 -50.018200 6.329005 -2.195924 6.305026 14.595087 15.079710 -49.429000 3.028721 -1.439673 26.137002 -0.850374 -2.529735 -3.959270 -0.840700 -0.000000 -20.667000
22.328678 16.617036 4.229060 -123.394535 -84.060195 145.166483 -13.009354 3.052184 -0.408979 0.730681 10.848734 -10.507660 0.816773 1.641335 43.478851 2.624366 15.439938 19.360560 6.031600 0.000000 -47.658500 6.359299 -2.204340 6.272730 14.902037 15.013001 -48.334835 3.091611 -1.351979 25.650238 -0.863702 -2.481709 -4.424578 -0.787900 0.000000 -20.317600
22.163848 16.664707 4.189984 -124.345994 -83.888516 146.065235 -12.953387 2.896074 -0.504622 0.529635 11.011786 -12.193868 0.825742 1.765270 45.918071 2.765283 16.905613 17.732883 6.340700 -0.000000 -45.686500 6.399895 -2.201927 6.229581 15.167590 14.919458 -47.194855 3.152864 -1.253375 25.065223 -0.870913 -2.427786 -4.811040 -0.741100 0.000001 -20.085200
22.002518 16.713405 4.150676 -125.467994 -83.729181 147.118638 -12.883823 2.748045 -0.593572 0.268093 11.083703 -13.862378 0.834235 1.897602 48.204280 2.898223 18.254327 15.910125 6.488500 0.000000 -44.146400 6.452552 -2.187283 6.170720 15.389997 14.790320 -46.008180 3.212450 -1.146138 24.400912 -0.867908 -2.345924 -5.132431 -0.696100 0.000000 -19.925000
21.843785 16.762485 4.111383 -126.617561 -83.583922 148.192213 -12.807744 2.604593 -0.671808 -0.029058 11.065697 -15.516251 0.843520 2.033120 50.321854 3.019162 19.426823 13.955797 6.458900 0.000000 -42.974501 6.509082 -2.165859 6.101075 15.577918 14.642850 -44.777419 3.271791 -1.029549 23.652494 -0.856498 -2.242925 -5.394921 -0.654100 0.000001 -19.808400
21.687945 16.811767 4.071503 -127.960543 -83.456751 149.441910 -12.719466 2.473959 -0.736677 -0.378678 10.956592 -17.132131 0.850824 2.168728 52.237261 3.124386 20.391584 11.942088 6.263600 0.000000 -42.051100 6.579580 -2.131152 6.012205 15.720709 14.452482 -43.504719 3.328841 -0.907192 22.853896 -0.831800 -2.089424 -5.619897 -0.609601 0.000000 -19.685500
21.533874 16.860813 4.031037 -129.460631 -83.347187 150.835289 -12.622078 2.355814 -0.785247 -0.768897 10.766061 -18.710702 0.854609 2.300323 53.938636 3.209761 21.122583 9.919118 5.920100 0.000001 -41.190300 6.660678 -2.086150 5.908150 15.822715 14.225762 -42.194651 3.383630 -0.779071 22.008313 -0.795940 -1.892143 -5.814656 -0.563500 0.000000 -19.527801
21.381614 16.909070 3.989920 -131.100618 -83.254662 152.360494 -12.517008 2.248151 -0.816403 -1.191690 10.497325 -20.252685 0.853591 2.424304 55.414182 3.273919 21.621105 7.956899 5.470200 -0.000001 -40.605200 6.749897 -2.031550 5.791149 15.884373 13.972200 -40.854039 3.434961 -0.644971 21.117901 -0.752688 -1.665971 -5.985126 -0.517600 0.000000 -19.335600
21.230442 16.956373 3.948043 -132.928674 -83.175908 154.065860 -12.404816 2.153111 -0.828358 -1.645763 10.167006 -21.757689 0.844810 2.538693 56.658688 3.315110 21.893528 6.073659 4.944300 0.000000 -39.934200 6.847117 -1.968912 5.664583 15.906932 13.689170 -39.489075 3.481963 -0.505661 20.191949 -0.703527 -1.415571 -6.135867 -0.472400 0.000000 -19.089300
21.079982 17.002395 3.905506 -134.932845 -83.106592 155.944388 -12.287405 2.067713 -0.821338 -2.123362 9.784526 -23.231238 0.826936 2.641609 57.670065 3.335097 21.967668 4.304651 4.383700 0.000000 -39.235700 6.948574 -1.900008 5.532223 15.893334 13.386966 -38.109391 3.523708 -0.361022 19.230964 -0.652538 -1.159685 -6.267289 -0.430001 -0.000000 -18.799400
20.929957 17.046926 3.862344 -137.139418 -83.042389 158.024209 -12.166113 1.990935 -0.795312 -2.621688 9.359689 -24.674531 0.798605 2.732106 58.449322 3.337356 21.881816 2.663905 3.821600 -0.000000 -38.467100 7.052115 -1.826329 5.396641 15.843959 13.068764 -36.722341 3.559027 -0.211670 18.240487 -0.602167 -0.910171 -6.378940 -0.391400 -0.000000 -18.487000
20.779999 17.089774 3.818653 -139.561726 -82.978357 160.322842 -12.042810 1.920999 -0.750460 -3.137371 8.899672 -26.088550 0.759103 2.809448 58.998567 3.327002 21.681099 1.158126 3.283600 0.000000 -37.623400 7.154832 -1.749773 5.259964 15.759582 12.738157 -35.336073 3.587199 -0.058419 17.226124 -0.554168 -0.676345 -6.469236 -0.357600 0.000000 -18.178499
20.630017 17.130816 3.774682 -142.168268 -82.910434 162.812091 -11.920338 1.853879 -0.687823 -3.661301 8.410769 -27.474593 0.708624 2.872926 59.323934 3.309819 21.410298 -0.218948 2.784699 -0.000000 -36.703499 7.251989 -1.673414 5.124529 15.644329 12.402460 -33.957408 3.608245 0.097800 16.190415 -0.510179 -0.468017 -6.534650 -0.329100 0.000000 -17.903000
20.479985 17.169970 3.730561 -144.971805 -82.836082 165.503000 -11.800259 1.787258 -0.608689 -4.191123 7.894501 -28.827570 0.647479 2.922218 59.429691 3.292211 21.115212 -1.476758 2.332900 0.000000 -35.723199 7.341323 -1.598491 4.989064 15.497562 12.060203 -32.592150 3.622091 0.255005 15.143594 -0.469516 -0.282362 -6.575160 -0.305399 0.000000 -17.689101
20.329723 17.207115 3.686471 -147.959174 -82.754134 168.383204 -11.684498 1.718330 -0.513981 -4.722027 7.350293 -30.139996 0.576633 2.956401 59.320367 3.280090 20.835132 -2.626323 1.930400 -0.000000 -34.727400 7.420227 -1.527270 4.852440 15.320297 11.710395 -31.244310 3.629246 0.410994 14.095857 -0.430933 -0.113097 -6.591484 -0.285501 -0.000000 -17.558301
20.179486 17.242126 3.642556 -151.098155 -82.665771 171.417443 -11.574569 1.643525 -0.404927 -5.246851 6.776170 -31.402401 0.497727 2.974170 59.002093 3.278216 20.599759 -3.678495 1.574800 0.000000 -33.777400 7.486526 -1.462122 4.713136 15.114602 11.351732 -29.916014 3.630640 0.563291 13.057135 -0.392867 0.049019 -6.586697 -0.268000 -0.000000 -17.519600
20.029364 17.274850 3.598971 -154.356274 -82.573774 174.570151 -11.471032 1.559961 -0.282812 -5.758917 6.170097 -32.603233 0.412518 2.973983 58.480881 3.289697 20.427184 -4.643348 1.261600 -0.000000 -32.923200 7.539595 -1.405217 4.569227 14.882894 10.980739 -28.607860 3.627280 0.709178 12.038878 -0.353439 0.216415 -6.566340 -0.251500 -0.000000 -17.571900
19.879098 17.305094 3.555911 -157.665802 -82.481259 177.774935 -11.372936 1.464443 -0.150267 -6.248818 5.531964 -33.734207 0.322630 2.954474 57.765049 3.315634 20.321286 -5.535766 0.982400 0.000001 -32.144900 7.580042 -1.358079 4.419452 14.630676 10.598344 -27.320437 3.620495 0.846540 11.047783 -0.311438 0.398834 -6.536502 -0.234801 -0.000000 -17.702000
